HIERARCHY
ROOT Hips
{
  OFFSET 279.157 85.6768 304.565
  CHANNELS 6 Xposition Yposition Zposition Zrotation Xrotation Yrotation
  JOINT LeftUpLeg
  {
    OFFSET 8.64259 1.95398 -2.38835
    CHANNELS 3 Zrotation Xrotation Yrotation
    JOINT LeftLeg
    {
      OFFSET 43.7702 0 0
      CHANNELS 3 Zrotation Xrotation Yrotation
      JOINT LeftFoot
      {
        OFFSET 40.6238 0 0
        CHANNELS 3 Zrotation Xrotation Yrotation
        JOINT LeftToeBase
        {
          OFFSET 12.7242 0 0
          CHANNELS 3 Zrotation Xrotation Yrotation
          End Site
          {
            OFFSET 0 0 0
          }
        }
      }
    }
  }
  JOINT RightUpLeg
  {
    OFFSET -8.2249 1.95398 -2.59336
    CHANNELS 3 Zrotation Xrotation Yrotation
    JOINT RightLeg
    {
      OFFSET 43.5653 0 0
      CHANNELS 3 Zrotation Xrotation Yrotation
      JOINT RightFoot
      {
        OFFSET 40.6238 0 0
        CHANNELS 3 Zrotation Xrotation Yrotation
        JOINT RightToeBase
        {
          OFFSET 12.7242 0 0
          CHANNELS 3 Zrotation Xrotation Yrotation
          End Site
          {
            OFFSET 0 0 0
          }
        }
      }
    }
  }
  JOINT Spine
  {
    OFFSET 0.165834 0.87714 6.61349
    CHANNELS 3 Zrotation Xrotation Yrotation
    JOINT Spine1
    {
      OFFSET 7.38963 1.71661e-005 0
      CHANNELS 3 Zrotation Xrotation Yrotation
      JOINT Spine2
      {
        OFFSET 11.9445 1.14441e-005 0
        CHANNELS 3 Zrotation Xrotation Yrotation
        JOINT Spine3
        {
          OFFSET 14.7254 4.19617e-005 0
          CHANNELS 3 Zrotation Xrotation Yrotation
          JOINT Spine4
          {
            OFFSET 10.9679 0 0
            CHANNELS 3 Zrotation Xrotation Yrotation
            JOINT RightShoulder
            {
              OFFSET 2.46616 -1.6653 3.69651
              CHANNELS 3 Zrotation Xrotation Yrotation
              JOINT RightArm
              {
                OFFSET 13.0012 0 0
                CHANNELS 3 Zrotation Xrotation Yrotation
                JOINT RightForeArm
                {
                  OFFSET 28.7848 1.52588e-005 0
                  CHANNELS 3 Zrotation Xrotation Yrotation
                  JOINT RightHand
                  {
                    OFFSET 26.5688 1.52588e-005 0
                    CHANNELS 3 Zrotation Xrotation Yrotation
                    End Site
                    {
                      OFFSET 0 0 0
                    }
                  }
                }
              }
            }
            JOINT LeftShoulder
            {
              OFFSET 2.38034 -1.29275 -3.7523
              CHANNELS 3 Zrotation Xrotation Yrotation
              JOINT LeftArm
              {
                OFFSET 16.3182 6.10351e-005 0
                CHANNELS 3 Zrotation Xrotation Yrotation
                JOINT LeftForeArm
                {
                  OFFSET 27.0901 0 0
                  CHANNELS 3 Zrotation Xrotation Yrotation
                  JOINT LeftHand
                  {
                    OFFSET 24.5451 1.52588e-005 0
                    CHANNELS 3 Zrotation Xrotation Yrotation
                    End Site
                    {
                      OFFSET 0 0 0
                    }
                  }
                }
              }
            }
            JOINT Neck
            {
              OFFSET 5.0226 -0.0266342 0
              CHANNELS 3 Zrotation Xrotation Yrotation
              JOINT Head
              {
                OFFSET 6.69364 2.86102e-005 0
                CHANNELS 3 Zrotation Xrotation Yrotation
                End Site
                {
                  OFFSET 0 0 0
                }
              }
            }
          }
        }
      }
    }
  }
}
MOTION
Frames:	6
Frame Time:	0.0416667
22.8966 97.7435 -44.9398 -98.511 -29.0187 -100.396 -173.516 7.71653 80.2957 -37.7008 12.3707 -3.18752 74.6906 10.9667 3.35513 14.8875 -10.4957 7.27319 -179.05 16.7606 87.6513 -84.4412 -11.0898 -5.84187 60.5605 -1.06124 -2.45021 16.1519 2.79645 6.43936 1.05622 7.53675 -88.8701 11.7959 2.63208 1.96304 0.126433 2.71588 1.84528 -22.411 1.9206 2.66316 -2.39838 1.92058 2.66315 89.8442 -25.1423 -109.097 50.867 -10.5837 0.472783 8.9619 -20.1789 -3.7094 -21.2852 -0.578506 -7.55567 -87.0283 -54.2223 83.8582 -6.37355 5.51455 -17.5248 1.50506 2.6952 -7.38877 2.77544 0.0633321 -0.941114 1.23602 2.76478 -6.90905 -7.88241 4.30205 -9.9016 
14.6797 105.264 -39.3661 -103.397 -33.027 -96.0007 -175.59 -2.0614 89.6962 -28.1181 11.5829 1.4885 61.4049 1.4109 1.28022 7.23634 -15.0132 5.82374 -178.097 23.2946 96.332 -75.506 -4.08383 -4.22208 66.7452 -4.36215 -3.7823 15.2657 3.21232 5.80235 -0.0352178 7.74677 -90.0262 11.3855 -0.0822734 -0.0431185 -0.285567 -0.0840945 -0.0394594 -22.8204 -0.0655108 -0.0658552 -2.80772 -0.0654946 -0.0658648 89.4284 -25.3319 -109.889 48.7113 -10.0411 4.78125 7.35976 -18.1162 -7.36924 -19.6466 -0.164002 -9.81687 -87.6795 -48.0085 81.8483 -10.8359 10.2838 -19.1122 0.104993 0.776192 -9.15331 0.635681 -0.0489933 -3.61737 -12.478 4.71567 -8.16251 -6.27206 5.21528 -5.83084 
6.73059 108.586 -33.9008 -102.889 -41.6217 -92.9569 -172.963 -3.93999 90.6702 -22.229 3.64999 -0.425548 60.535 0.523438 -2.43915 8.57003 -13.7503 5.14083 -179.015 28.5718 98.0991 -62.2869 -6.50106 -2.99735 69.2585 -5.16599 -2.67989 16.805 2.89387 5.22111 -1.00522 7.91755 -90.6517 11.028 -2.30316 -1.0759 -0.641209 -2.34829 -0.973452 -23.1845 -1.87336 -1.71846 -3.17187 -1.87336 -1.71846 89.9847 -26.8373 -108.061 47.3059 -7.23968 6.84797 6.88537 -17.0867 -7.42837 -19.2936 0.00312571 -10.7021 -89.1459 -40.9353 78.0042 -14.4934 13.8732 -28.4642 -1.59648 5.59914 -3.94714 1.84937 -0.0991087 -4.60274 -12.1614 3.83287 -12.2651 -7.28776 4.33042 -1.30203 
-1.23748 106.999 -28.2767 -101.793 -49.2954 -89.3927 -172.521 -3.39158 92.4973 -16.2629 6.33156 -1.18753 58.9655 -1.29208 -6.93505 16.4874 -10.315 9.36623 179.731 28.1726 98.712 -43.6392 -12.8505 -1.09809 70.4211 -6.27348 -3.23904 21.0135 1.64952 5.10519 -1.7314 8.06417 -91.259 10.7061 -4.02783 -2.13246 -0.960003 -4.11776 -1.95293 -23.5157 -3.20096 -3.24471 -3.5031 -3.20094 -3.24471 89.6723 -29.76 -107.494 44.2435 -5.49657 8.7115 7.36731 -16.5829 -6.02732 -18.8042 -0.00229768 -10.7262 -90.5778 -43.905 76.4092 -10.8061 14.4401 -36.9411 -3.58394 8.49525 -0.968128 3.62219 -0.0313253 -3.20237 -7.47313 1.93371 -15.0581 -9.71254 2.99843 1.16742 
-9.99489 101.532 -23.0835 -101.679 -54.9799 -86.8753 -172.041 -2.31635 95.522 -25.6337 10.1694 1.14102 76.2953 9.36593 -3.6332 12.3289 -10.5133 3.33414 179.418 27.5917 100.141 -27.1095 -13.8212 0.855068 69.2597 -5.94787 -2.70006 22.2665 1.34009 4.76257 -1.99378 8.30898 -91.5163 10.1961 -4.6639 -2.61056 -1.46869 -4.77424 -2.40251 -24.028 -3.66415 -3.89187 -4.01538 -3.66417 -3.89188 89.9533 -32.9713 -105.789 42.2241 -5.33902 9.48195 7.52838 -18.4706 -5.80544 -17.3974 -0.0312515 -11.748 -91.6582 -44.847 74.9453 -12.6294 13.9182 -43.6839 -3.81161 15.6787 0.0868355 1.2728 -0.0484434 -3.29386 -3.05282 -0.139078 -20.3716 -9.25957 1.99418 3.04691 
-20.0992 96.9512 -16.339 -105.273 -54.3777 -91.5494 -168.35 -17.3913 96.5072 -22.5526 8.85681 1.31696 92.3339 18.8787 -7.05983 17.4452 -9.49489 8.77074 179.741 23.7365 100.394 -16.7912 -11.6668 1.51629 65.8832 -4.02677 -1.76172 23.2883 1.08298 4.47563 -2.07255 8.59388 -91.0096 9.65849 -4.58819 -1.64829 -2.00508 -4.65628 -1.4444 -24.582 -3.8806 -2.95238 -4.56936 -3.88061 -2.95237 91.0579 -36.5548 -102.55 40.3094 -5.16215 6.61327 7.43048 -21.8946 -4.06327 -19.4283 -0.67733 -7.71777 -92.6189 -45.8737 73.7247 -20.1476 11.2905 -38.1604 0.577424 29.7038 -5.12137 0.100923 -0.0652217 -3.23428 -1.19291 0.205664 -24.6198 -7.53414 3.26389 2.93528 
